<svg xmlns="http://www.w3.org/2000/svg" viewBox="0 0 220 56" fill="none">
  <!-- Gear icon mark -->
  <g transform="translate(4, 4)">
    <!-- Gear teeth path -->
    <path d="M24 2
      L26.8 7.2 L32.4 5.6 L33.2 11.6
      L38.8 14.4 L36.8 20.0
      L41.6 24.0 L36.8 28.0
      L38.8 33.6 L33.2 36.4
      L32.4 42.4 L26.8 40.8
      L24 46.0 L21.2 40.8
      L15.6 42.4 L14.8 36.4
      L9.2 33.6 L11.2 28.0
      L6.4 24.0 L11.2 20.0
      L9.2 14.4 L14.8 11.6
      L15.6 5.6 L21.2 7.2 Z"
      fill="#1d4ed8"/>
    <!-- Hub circle -->
    <circle cx="24" cy="24" r="10" fill="white"/>
    <!-- NRV hub text -->
    <text x="24" y="28" text-anchor="middle"
      font-family="Arial, sans-serif" font-size="7" font-weight="900" fill="#1d4ed8">NRV</text>
  </g>

  <!-- Divider -->
  <rect x="60" y="10" width="2" height="36" rx="1" fill="#e5e7eb"/>

  <!-- Text block -->
  <text x="70" y="28" font-family="Arial, sans-serif" font-size="18" font-weight="800" fill="#111827" letter-spacing="0.5">NRV</text>
  <rect x="70" y="31" width="40" height="2.5" rx="1.25" fill="#1d4ed8"/>
  <text x="70" y="44" font-family="Arial, sans-serif" font-size="10" font-weight="600" fill="#6b7280" letter-spacing="2.5">ENTERPRISES</text>
</svg>
